<svg xmlns="http://www.w3.org/2000/svg" xmlns:xlink="http://www.w3.org/1999/xlink" width="500" zoomAndPan="magnify" viewBox="0 0 375 374.999991" height="500" preserveAspectRatio="xMidYMid meet" version="1.0"><defs><g/><clipPath id="32c5ac9b85"><path d="M 36.75 89.691406 L 132 89.691406 L 132 220.191406 L 36.75 220.191406 Z M 36.75 89.691406 " clip-rule="nonzero"/></clipPath></defs><g clip-path="url(#32c5ac9b85)"><path fill="#0cc0df" d="M 82.074219 89.691406 L 36.835938 89.691406 L 36.835938 118.273438 L 81.679688 118.273438 C 82.390625 118.277344 83.097656 118.320312 83.804688 118.398438 C 84.507812 118.476562 85.210938 118.585938 85.90625 118.730469 C 86.601562 118.875 87.289062 119.054688 87.964844 119.265625 C 88.644531 119.480469 89.308594 119.722656 89.964844 120 C 90.617188 120.277344 91.257812 120.585938 91.882812 120.925781 C 92.503906 121.265625 93.113281 121.632812 93.699219 122.03125 C 94.289062 122.429688 94.855469 122.859375 95.402344 123.3125 C 95.949219 123.765625 96.472656 124.246094 96.96875 124.75 C 97.46875 125.253906 97.945312 125.785156 98.390625 126.335938 C 98.839844 126.886719 99.261719 127.457031 99.652344 128.050781 C 100.042969 128.640625 100.40625 129.253906 100.738281 129.878906 C 101.074219 130.507812 101.375 131.148438 101.644531 131.808594 C 101.914062 132.464844 102.152344 133.132812 102.355469 133.8125 C 102.5625 134.492188 102.734375 135.179688 102.871094 135.878906 C 103.007812 136.574219 103.113281 137.277344 103.179688 137.984375 C 103.25 138.691406 103.285156 139.398438 103.285156 140.109375 C 103.285156 140.820312 103.25 141.53125 103.179688 142.238281 C 103.113281 142.945312 103.007812 143.644531 102.871094 144.34375 C 102.734375 145.039062 102.5625 145.726562 102.355469 146.410156 C 102.152344 147.089844 101.914062 147.757812 101.644531 148.414062 C 101.375 149.070312 101.074219 149.714844 100.738281 150.339844 C 100.40625 150.96875 100.042969 151.578125 99.652344 152.171875 C 99.261719 152.761719 98.839844 153.335938 98.390625 153.886719 C 97.945312 154.4375 97.46875 154.964844 96.96875 155.472656 C 96.472656 155.976562 95.949219 156.457031 95.402344 156.910156 C 94.855469 157.363281 94.289062 157.789062 93.699219 158.1875 C 93.113281 158.585938 92.503906 158.957031 91.882812 159.296875 C 91.257812 159.636719 90.617188 159.941406 89.964844 160.21875 C 89.308594 160.496094 88.644531 160.742188 87.964844 160.953125 C 87.289062 161.167969 86.601562 161.34375 85.90625 161.488281 C 85.210938 161.636719 84.507812 161.746094 83.804688 161.824219 C 83.097656 161.898438 82.390625 161.941406 81.679688 161.949219 L 63.980469 161.949219 L 63.980469 153.785156 L 81.175781 153.785156 C 82.078125 153.785156 82.972656 153.695312 83.855469 153.519531 C 84.738281 153.34375 85.597656 153.085938 86.429688 152.738281 C 87.261719 152.394531 88.054688 151.972656 88.804688 151.472656 C 89.550781 150.972656 90.246094 150.402344 90.882812 149.765625 C 91.519531 149.128906 92.089844 148.433594 92.589844 147.683594 C 93.089844 146.933594 93.511719 146.144531 93.859375 145.3125 C 94.203125 144.480469 94.464844 143.621094 94.640625 142.738281 C 94.816406 141.851562 94.902344 140.960938 94.902344 140.058594 C 94.902344 139.15625 94.816406 138.265625 94.640625 137.382812 C 94.464844 136.496094 94.203125 135.640625 93.859375 134.804688 C 93.511719 133.972656 93.089844 133.183594 92.589844 132.433594 C 92.089844 131.683594 91.519531 130.992188 90.882812 130.351562 C 90.246094 129.714844 89.550781 129.148438 88.804688 128.648438 C 88.054688 128.144531 87.261719 127.722656 86.429688 127.378906 C 85.597656 127.035156 84.738281 126.773438 83.855469 126.597656 C 82.972656 126.421875 82.078125 126.332031 81.175781 126.332031 L 36.835938 126.332031 L 36.835938 168.167969 L 57.757812 168.167969 L 57.757812 183.636719 L 36.835938 183.636719 L 36.835938 220.015625 L 63.980469 220.015625 L 63.980469 189.863281 L 82.074219 189.863281 C 109.691406 189.863281 132.160156 167.394531 132.160156 139.777344 C 132.160156 112.160156 109.691406 89.691406 82.074219 89.691406 Z M 57.757812 213.792969 L 43.058594 213.792969 L 43.058594 189.863281 L 57.757812 189.863281 Z M 57.757812 147.566406 L 57.757812 161.949219 L 43.058594 161.949219 L 43.058594 132.554688 L 81.175781 132.554688 C 81.6875 132.527344 82.195312 132.550781 82.703125 132.625 C 83.210938 132.699219 83.703125 132.824219 84.183594 132.996094 C 84.664062 133.171875 85.121094 133.394531 85.558594 133.664062 C 85.992188 133.933594 86.398438 134.242188 86.769531 134.59375 C 87.140625 134.945312 87.476562 135.332031 87.769531 135.75 C 88.0625 136.167969 88.308594 136.613281 88.511719 137.082031 C 88.714844 137.554688 88.867188 138.039062 88.972656 138.539062 C 89.074219 139.039062 89.125 139.546875 89.125 140.058594 C 89.125 140.570312 89.074219 141.078125 88.972656 141.578125 C 88.867188 142.078125 88.714844 142.566406 88.511719 143.035156 C 88.308594 143.503906 88.0625 143.949219 87.769531 144.367188 C 87.476562 144.789062 87.140625 145.171875 86.769531 145.523438 C 86.398438 145.875 85.992188 146.1875 85.558594 146.453125 C 85.121094 146.722656 84.664062 146.945312 84.183594 147.121094 C 83.703125 147.296875 83.210938 147.421875 82.703125 147.496094 C 82.195312 147.570312 81.6875 147.589844 81.175781 147.5625 Z M 82.074219 183.640625 L 63.980469 183.640625 L 63.980469 168.167969 L 81.679688 168.167969 C 82.597656 168.167969 83.515625 168.125 84.429688 168.035156 C 85.34375 167.945312 86.25 167.808594 87.152344 167.628906 C 88.054688 167.453125 88.945312 167.226562 89.824219 166.960938 C 90.703125 166.695312 91.566406 166.386719 92.414062 166.035156 C 93.265625 165.683594 94.09375 165.289062 94.90625 164.855469 C 95.714844 164.421875 96.503906 163.953125 97.265625 163.441406 C 98.03125 162.929688 98.769531 162.382812 99.476562 161.800781 C 100.1875 161.21875 100.867188 160.601562 101.519531 159.953125 C 102.167969 159.300781 102.785156 158.621094 103.367188 157.910156 C 103.949219 157.203125 104.496094 156.464844 105.007812 155.699219 C 105.519531 154.9375 105.988281 154.148438 106.421875 153.339844 C 106.855469 152.527344 107.25 151.699219 107.601562 150.847656 C 107.953125 150 108.261719 149.136719 108.527344 148.257812 C 108.796875 147.378906 109.019531 146.488281 109.199219 145.585938 C 109.375 144.683594 109.511719 143.777344 109.601562 142.863281 C 109.691406 141.949219 109.738281 141.03125 109.738281 140.113281 C 109.738281 139.191406 109.691406 138.277344 109.601562 137.363281 C 109.511719 136.445312 109.375 135.539062 109.199219 134.636719 C 109.019531 133.738281 108.796875 132.847656 108.527344 131.96875 C 108.261719 131.085938 107.953125 130.222656 107.601562 129.375 C 107.25 128.527344 106.855469 127.695312 106.421875 126.886719 C 105.988281 126.074219 105.519531 125.289062 105.007812 124.523438 C 104.496094 123.757812 103.949219 123.023438 103.367188 122.3125 C 102.785156 121.601562 102.167969 120.921875 101.519531 120.273438 C 100.867188 119.621094 100.1875 119.003906 99.476562 118.421875 C 98.769531 117.839844 98.03125 117.292969 97.265625 116.78125 C 96.503906 116.273438 95.714844 115.800781 94.90625 115.367188 C 94.09375 114.933594 93.265625 114.542969 92.414062 114.191406 C 91.566406 113.839844 90.703125 113.527344 89.824219 113.261719 C 88.945312 112.996094 88.054688 112.773438 87.152344 112.59375 C 86.25 112.414062 85.34375 112.277344 84.429688 112.1875 C 83.515625 112.097656 82.597656 112.054688 81.679688 112.054688 L 43.058594 112.054688 L 43.058594 95.914062 L 82.074219 95.914062 C 106.261719 95.914062 125.9375 115.589844 125.9375 139.777344 C 125.9375 163.964844 106.261719 183.636719 82.074219 183.636719 Z M 82.074219 183.640625 " fill-opacity="1" fill-rule="nonzero"/></g><g fill="#332c54" fill-opacity="1"><g transform="translate(141.786996, 167.234711)"><g><path d="M 13.515625 -24.5 C 15.679688 -24.5 17.5625 -24.132812 19.15625 -23.40625 C 20.757812 -22.6875 21.992188 -21.660156 22.859375 -20.328125 C 23.722656 -19.003906 24.15625 -17.429688 24.15625 -15.609375 C 24.15625 -13.816406 23.722656 -12.25 22.859375 -10.90625 C 21.992188 -9.5625 20.757812 -8.53125 19.15625 -7.8125 C 17.5625 -7.101562 15.679688 -6.75 13.515625 -6.75 L 8.578125 -6.75 L 8.578125 0 L 2.90625 0 L 2.90625 -24.5 Z M 13.1875 -11.375 C 14.894531 -11.375 16.191406 -11.738281 17.078125 -12.46875 C 17.960938 -13.207031 18.40625 -14.253906 18.40625 -15.609375 C 18.40625 -16.984375 17.960938 -18.035156 17.078125 -18.765625 C 16.191406 -19.503906 14.894531 -19.875 13.1875 -19.875 L 8.578125 -19.875 L 8.578125 -11.375 Z M 13.1875 -11.375 "/></g></g></g><g fill="#332c54" fill-opacity="1"><g transform="translate(171.146208, 167.234711)"><g><path d="M 19.046875 -5.25 L 7.671875 -5.25 L 5.5 0 L -0.3125 0 L 10.609375 -24.5 L 16.203125 -24.5 L 27.15625 0 L 21.203125 0 Z M 17.25 -9.5625 L 13.375 -18.9375 L 9.484375 -9.5625 Z M 17.25 -9.5625 "/></g></g></g><g fill="#332c54" fill-opacity="1"><g transform="translate(201.695158, 167.234711)"><g><path d="M 19.453125 -12.640625 L 24.640625 -12.640625 L 24.640625 -2.6875 C 23.304688 -1.6875 21.765625 -0.914062 20.015625 -0.375 C 18.265625 0.15625 16.503906 0.421875 14.734375 0.421875 C 12.191406 0.421875 9.90625 -0.117188 7.875 -1.203125 C 5.84375 -2.285156 4.25 -3.789062 3.09375 -5.71875 C 1.9375 -7.644531 1.359375 -9.820312 1.359375 -12.25 C 1.359375 -14.675781 1.9375 -16.851562 3.09375 -18.78125 C 4.25 -20.707031 5.851562 -22.210938 7.90625 -23.296875 C 9.957031 -24.378906 12.269531 -24.921875 14.84375 -24.921875 C 16.988281 -24.921875 18.9375 -24.554688 20.6875 -23.828125 C 22.4375 -23.109375 23.90625 -22.0625 25.09375 -20.6875 L 21.453125 -17.328125 C 19.703125 -19.171875 17.59375 -20.09375 15.125 -20.09375 C 13.5625 -20.09375 12.171875 -19.765625 10.953125 -19.109375 C 9.742188 -18.453125 8.800781 -17.53125 8.125 -16.34375 C 7.445312 -15.15625 7.109375 -13.789062 7.109375 -12.25 C 7.109375 -10.726562 7.445312 -9.375 8.125 -8.1875 C 8.800781 -7 9.738281 -6.070312 10.9375 -5.40625 C 12.132812 -4.738281 13.503906 -4.40625 15.046875 -4.40625 C 16.679688 -4.40625 18.148438 -4.753906 19.453125 -5.453125 Z M 19.453125 -12.640625 "/></g></g></g><g fill="#332c54" fill-opacity="1"><g transform="translate(232.41907, 167.234711)"><g><path d="M 21.875 -4.546875 L 21.875 0 L 2.90625 0 L 2.90625 -24.5 L 21.421875 -24.5 L 21.421875 -19.953125 L 8.546875 -19.953125 L 8.546875 -14.625 L 19.921875 -14.625 L 19.921875 -10.21875 L 8.546875 -10.21875 L 8.546875 -4.546875 Z M 21.875 -4.546875 "/></g></g></g><g fill="#332c54" fill-opacity="1"><g transform="translate(259.643761, 167.234711)"><g><path d="M 13.515625 -24.5 C 15.679688 -24.5 17.5625 -24.132812 19.15625 -23.40625 C 20.757812 -22.6875 21.992188 -21.660156 22.859375 -20.328125 C 23.722656 -19.003906 24.15625 -17.429688 24.15625 -15.609375 C 24.15625 -13.816406 23.722656 -12.25 22.859375 -10.90625 C 21.992188 -9.5625 20.757812 -8.53125 19.15625 -7.8125 C 17.5625 -7.101562 15.679688 -6.75 13.515625 -6.75 L 8.578125 -6.75 L 8.578125 0 L 2.90625 0 L 2.90625 -24.5 Z M 13.1875 -11.375 C 14.894531 -11.375 16.191406 -11.738281 17.078125 -12.46875 C 17.960938 -13.207031 18.40625 -14.253906 18.40625 -15.609375 C 18.40625 -16.984375 17.960938 -18.035156 17.078125 -18.765625 C 16.191406 -19.503906 14.894531 -19.875 13.1875 -19.875 L 8.578125 -19.875 L 8.578125 -11.375 Z M 13.1875 -11.375 "/></g></g></g><g fill="#332c54" fill-opacity="1"><g transform="translate(289.002971, 167.234711)"><g><path d="M 2.90625 -24.5 L 8.578125 -24.5 L 8.578125 -4.625 L 20.859375 -4.625 L 20.859375 0 L 2.90625 0 Z M 2.90625 -24.5 "/></g></g></g><g fill="#332c54" fill-opacity="1"><g transform="translate(313.883191, 167.234711)"><g><path d="M 13.796875 0.421875 C 10.296875 0.421875 7.566406 -0.546875 5.609375 -2.484375 C 3.660156 -4.421875 2.6875 -7.1875 2.6875 -10.78125 L 2.6875 -24.5 L 8.359375 -24.5 L 8.359375 -10.984375 C 8.359375 -6.597656 10.179688 -4.40625 13.828125 -4.40625 C 15.597656 -4.40625 16.945312 -4.9375 17.875 -6 C 18.8125 -7.0625 19.28125 -8.722656 19.28125 -10.984375 L 19.28125 -24.5 L 24.890625 -24.5 L 24.890625 -10.78125 C 24.890625 -7.1875 23.914062 -4.421875 21.96875 -2.484375 C 20.019531 -0.546875 17.296875 0.421875 13.796875 0.421875 Z M 13.796875 0.421875 "/></g></g></g><g fill="#332c54" fill-opacity="1"><g transform="translate(345.201961, 167.234711)"><g><path d="M 10.953125 0.421875 C 9.015625 0.421875 7.140625 0.160156 5.328125 -0.359375 C 3.523438 -0.890625 2.078125 -1.578125 0.984375 -2.421875 L 2.90625 -6.6875 C 3.957031 -5.914062 5.203125 -5.296875 6.640625 -4.828125 C 8.085938 -4.359375 9.535156 -4.125 10.984375 -4.125 C 12.597656 -4.125 13.789062 -4.363281 14.5625 -4.84375 C 15.332031 -5.320312 15.71875 -5.957031 15.71875 -6.75 C 15.71875 -7.332031 15.488281 -7.816406 15.03125 -8.203125 C 14.570312 -8.585938 13.988281 -8.894531 13.28125 -9.125 C 12.570312 -9.363281 11.609375 -9.625 10.390625 -9.90625 C 8.523438 -10.34375 7 -10.785156 5.8125 -11.234375 C 4.625 -11.679688 3.601562 -12.394531 2.75 -13.375 C 1.894531 -14.351562 1.46875 -15.660156 1.46875 -17.296875 C 1.46875 -18.710938 1.851562 -20 2.625 -21.15625 C 3.394531 -22.3125 4.554688 -23.226562 6.109375 -23.90625 C 7.660156 -24.582031 9.554688 -24.921875 11.796875 -24.921875 C 13.359375 -24.921875 14.882812 -24.734375 16.375 -24.359375 C 17.875 -23.984375 19.179688 -23.445312 20.296875 -22.75 L 18.546875 -18.4375 C 16.285156 -19.726562 14.023438 -20.375 11.765625 -20.375 C 10.171875 -20.375 8.992188 -20.113281 8.234375 -19.59375 C 7.484375 -19.082031 7.109375 -18.40625 7.109375 -17.5625 C 7.109375 -16.726562 7.546875 -16.101562 8.421875 -15.6875 C 9.296875 -15.28125 10.628906 -14.878906 12.421875 -14.484375 C 14.285156 -14.046875 15.8125 -13.601562 17 -13.15625 C 18.195312 -12.71875 19.21875 -12.019531 20.0625 -11.0625 C 20.914062 -10.101562 21.34375 -8.804688 21.34375 -7.171875 C 21.34375 -5.773438 20.953125 -4.5 20.171875 -3.34375 C 19.390625 -2.1875 18.21875 -1.269531 16.65625 -0.59375 C 15.09375 0.0820312 13.191406 0.421875 10.953125 0.421875 Z M 10.953125 0.421875 "/></g></g></g></svg>