<svg xmlns="http://www.w3.org/2000/svg" xmlns:xlink="http://www.w3.org/1999/xlink" width="500" zoomAndPan="magnify" viewBox="0 0 375 374.999991" height="500" preserveAspectRatio="xMidYMid meet" version="1.0"><defs><g/><clipPath id="c3b89bd7f4"><path d="M 139.75 89.691406 L 235 89.691406 L 235 220.191406 L 139.75 220.191406 Z M 139.75 89.691406 " clip-rule="nonzero"/></clipPath></defs><g clip-path="url(#c3b89bd7f4)"><path fill="#0cc0df" d="M 185.074219 89.691406 L 139.835938 89.691406 L 139.835938 118.273438 L 184.679688 118.273438 C 185.390625 118.277344 186.097656 118.320312 186.804688 118.398438 C 187.511719 118.476562 188.210938 118.585938 188.90625 118.730469 C 189.601562 118.875 190.289062 119.054688 190.964844 119.265625 C 191.644531 119.480469 192.308594 119.722656 192.964844 120 C 193.617188 120.277344 194.257812 120.585938 194.882812 120.925781 C 195.503906 121.265625 196.113281 121.632812 196.699219 122.03125 C 197.289062 122.429688 197.855469 122.859375 198.402344 123.3125 C 198.949219 123.765625 199.472656 124.246094 199.96875 124.75 C 200.46875 125.253906 200.945312 125.785156 201.390625 126.335938 C 201.839844 126.886719 202.261719 127.457031 202.652344 128.050781 C 203.046875 128.640625 203.40625 129.253906 203.742188 129.878906 C 204.074219 130.507812 204.375 131.148438 204.644531 131.808594 C 204.914062 132.464844 205.152344 133.132812 205.355469 133.8125 C 205.5625 134.492188 205.734375 135.179688 205.871094 135.878906 C 206.007812 136.574219 206.113281 137.277344 206.179688 137.984375 C 206.25 138.691406 206.285156 139.398438 206.285156 140.109375 C 206.285156 140.820312 206.25 141.53125 206.179688 142.238281 C 206.113281 142.945312 206.007812 143.644531 205.871094 144.34375 C 205.734375 145.039062 205.5625 145.726562 205.355469 146.410156 C 205.152344 147.089844 204.914062 147.757812 204.644531 148.414062 C 204.375 149.070312 204.074219 149.714844 203.742188 150.339844 C 203.40625 150.96875 203.046875 151.578125 202.652344 152.171875 C 202.261719 152.761719 201.839844 153.335938 201.390625 153.886719 C 200.945312 154.4375 200.46875 154.964844 199.96875 155.472656 C 199.472656 155.976562 198.949219 156.457031 198.402344 156.910156 C 197.855469 157.363281 197.289062 157.789062 196.699219 158.1875 C 196.113281 158.585938 195.503906 158.957031 194.882812 159.296875 C 194.257812 159.636719 193.617188 159.941406 192.964844 160.21875 C 192.308594 160.496094 191.644531 160.742188 190.964844 160.953125 C 190.289062 161.167969 189.601562 161.34375 188.90625 161.488281 C 188.210938 161.636719 187.511719 161.746094 186.804688 161.824219 C 186.097656 161.898438 185.390625 161.941406 184.679688 161.949219 L 166.980469 161.949219 L 166.980469 153.785156 L 184.175781 153.785156 C 185.078125 153.785156 185.972656 153.695312 186.855469 153.519531 C 187.738281 153.34375 188.597656 153.085938 189.429688 152.738281 C 190.261719 152.394531 191.054688 151.972656 191.804688 151.472656 C 192.554688 150.972656 193.246094 150.402344 193.882812 149.765625 C 194.519531 149.128906 195.089844 148.433594 195.589844 147.683594 C 196.089844 146.933594 196.515625 146.144531 196.859375 145.3125 C 197.203125 144.480469 197.464844 143.621094 197.640625 142.738281 C 197.816406 141.851562 197.902344 140.960938 197.902344 140.058594 C 197.902344 139.15625 197.816406 138.265625 197.640625 137.382812 C 197.464844 136.496094 197.203125 135.640625 196.859375 134.804688 C 196.515625 133.972656 196.089844 133.183594 195.589844 132.433594 C 195.089844 131.683594 194.519531 130.992188 193.882812 130.351562 C 193.246094 129.714844 192.554688 129.148438 191.804688 128.648438 C 191.054688 128.144531 190.261719 127.722656 189.429688 127.378906 C 188.597656 127.035156 187.738281 126.773438 186.855469 126.597656 C 185.972656 126.421875 185.078125 126.332031 184.175781 126.332031 L 139.835938 126.332031 L 139.835938 168.167969 L 160.757812 168.167969 L 160.757812 183.636719 L 139.835938 183.636719 L 139.835938 220.015625 L 166.980469 220.015625 L 166.980469 189.863281 L 185.074219 189.863281 C 212.691406 189.863281 235.160156 167.394531 235.160156 139.777344 C 235.160156 112.160156 212.691406 89.691406 185.074219 89.691406 Z M 160.757812 213.792969 L 146.058594 213.792969 L 146.058594 189.863281 L 160.757812 189.863281 Z M 160.757812 147.566406 L 160.757812 161.949219 L 146.058594 161.949219 L 146.058594 132.554688 L 184.175781 132.554688 C 184.6875 132.527344 185.195312 132.550781 185.703125 132.625 C 186.210938 132.699219 186.703125 132.824219 187.183594 132.996094 C 187.664062 133.171875 188.125 133.394531 188.558594 133.664062 C 188.992188 133.933594 189.398438 134.242188 189.769531 134.59375 C 190.140625 134.945312 190.476562 135.332031 190.769531 135.75 C 191.0625 136.167969 191.308594 136.613281 191.511719 137.082031 C 191.714844 137.554688 191.867188 138.039062 191.972656 138.539062 C 192.074219 139.039062 192.128906 139.546875 192.128906 140.058594 C 192.128906 140.570312 192.074219 141.078125 191.972656 141.578125 C 191.867188 142.078125 191.714844 142.566406 191.511719 143.035156 C 191.308594 143.503906 191.0625 143.949219 190.769531 144.367188 C 190.476562 144.789062 190.140625 145.171875 189.769531 145.523438 C 189.398438 145.875 188.992188 146.1875 188.558594 146.453125 C 188.125 146.722656 187.664062 146.945312 187.183594 147.121094 C 186.703125 147.296875 186.210938 147.421875 185.703125 147.496094 C 185.195312 147.570312 184.6875 147.589844 184.175781 147.5625 Z M 185.074219 183.640625 L 166.980469 183.640625 L 166.980469 168.167969 L 184.679688 168.167969 C 185.597656 168.167969 186.515625 168.125 187.429688 168.035156 C 188.34375 167.945312 189.25 167.808594 190.152344 167.628906 C 191.054688 167.453125 191.945312 167.226562 192.824219 166.960938 C 193.703125 166.695312 194.566406 166.386719 195.417969 166.035156 C 196.265625 165.683594 197.09375 165.289062 197.90625 164.855469 C 198.714844 164.421875 199.503906 163.953125 200.265625 163.441406 C 201.03125 162.929688 201.769531 162.382812 202.476562 161.800781 C 203.1875 161.21875 203.867188 160.601562 204.519531 159.953125 C 205.167969 159.300781 205.785156 158.621094 206.367188 157.910156 C 206.949219 157.203125 207.496094 156.464844 208.007812 155.699219 C 208.519531 154.9375 208.992188 154.148438 209.421875 153.339844 C 209.855469 152.527344 210.25 151.699219 210.601562 150.847656 C 210.953125 150 211.261719 149.136719 211.527344 148.257812 C 211.796875 147.378906 212.019531 146.488281 212.199219 145.585938 C 212.375 144.683594 212.511719 143.777344 212.601562 142.863281 C 212.691406 141.949219 212.738281 141.03125 212.738281 140.113281 C 212.738281 139.191406 212.691406 138.277344 212.601562 137.363281 C 212.511719 136.445312 212.375 135.539062 212.199219 134.636719 C 212.019531 133.738281 211.796875 132.847656 211.527344 131.96875 C 211.261719 131.085938 210.953125 130.222656 210.601562 129.375 C 210.25 128.527344 209.855469 127.695312 209.421875 126.886719 C 208.992188 126.074219 208.519531 125.289062 208.007812 124.523438 C 207.496094 123.757812 206.949219 123.023438 206.367188 122.3125 C 205.785156 121.601562 205.167969 120.921875 204.519531 120.273438 C 203.867188 119.621094 203.1875 119.003906 202.480469 118.421875 C 201.769531 117.839844 201.03125 117.292969 200.265625 116.78125 C 199.503906 116.273438 198.714844 115.800781 197.90625 115.367188 C 197.09375 114.933594 196.265625 114.542969 195.417969 114.191406 C 194.566406 113.839844 193.703125 113.527344 192.824219 113.261719 C 191.945312 112.996094 191.054688 112.773438 190.152344 112.59375 C 189.25 112.414062 188.34375 112.277344 187.429688 112.1875 C 186.515625 112.097656 185.597656 112.054688 184.679688 112.054688 L 146.058594 112.054688 L 146.058594 95.914062 L 185.074219 95.914062 C 209.261719 95.914062 228.9375 115.589844 228.9375 139.777344 C 228.9375 163.964844 209.261719 183.636719 185.074219 183.636719 Z M 185.074219 183.640625 " fill-opacity="1" fill-rule="nonzero"/></g><g fill="#332c54" fill-opacity="1"><g transform="translate(74.622498, 261.407371)"><g><path d="M 13.515625 -24.5 C 15.679688 -24.5 17.5625 -24.132812 19.15625 -23.40625 C 20.757812 -22.6875 21.992188 -21.660156 22.859375 -20.328125 C 23.722656 -19.003906 24.15625 -17.429688 24.15625 -15.609375 C 24.15625 -13.816406 23.722656 -12.25 22.859375 -10.90625 C 21.992188 -9.5625 20.757812 -8.53125 19.15625 -7.8125 C 17.5625 -7.101562 15.679688 -6.75 13.515625 -6.75 L 8.578125 -6.75 L 8.578125 0 L 2.90625 0 L 2.90625 -24.5 Z M 13.1875 -11.375 C 14.894531 -11.375 16.191406 -11.738281 17.078125 -12.46875 C 17.960938 -13.207031 18.40625 -14.253906 18.40625 -15.609375 C 18.40625 -16.984375 17.960938 -18.035156 17.078125 -18.765625 C 16.191406 -19.503906 14.894531 -19.875 13.1875 -19.875 L 8.578125 -19.875 L 8.578125 -11.375 Z M 13.1875 -11.375 "/></g></g></g><g fill="#332c54" fill-opacity="1"><g transform="translate(103.98171, 261.407371)"><g><path d="M 19.046875 -5.25 L 7.671875 -5.25 L 5.5 0 L -0.3125 0 L 10.609375 -24.5 L 16.203125 -24.5 L 27.15625 0 L 21.203125 0 Z M 17.25 -9.5625 L 13.375 -18.9375 L 9.484375 -9.5625 Z M 17.25 -9.5625 "/></g></g></g><g fill="#332c54" fill-opacity="1"><g transform="translate(134.530661, 261.407371)"><g><path d="M 19.453125 -12.640625 L 24.640625 -12.640625 L 24.640625 -2.6875 C 23.304688 -1.6875 21.765625 -0.914062 20.015625 -0.375 C 18.265625 0.15625 16.503906 0.421875 14.734375 0.421875 C 12.191406 0.421875 9.90625 -0.117188 7.875 -1.203125 C 5.84375 -2.285156 4.25 -3.789062 3.09375 -5.71875 C 1.9375 -7.644531 1.359375 -9.820312 1.359375 -12.25 C 1.359375 -14.675781 1.9375 -16.851562 3.09375 -18.78125 C 4.25 -20.707031 5.851562 -22.210938 7.90625 -23.296875 C 9.957031 -24.378906 12.269531 -24.921875 14.84375 -24.921875 C 16.988281 -24.921875 18.9375 -24.554688 20.6875 -23.828125 C 22.4375 -23.109375 23.90625 -22.0625 25.09375 -20.6875 L 21.453125 -17.328125 C 19.703125 -19.171875 17.59375 -20.09375 15.125 -20.09375 C 13.5625 -20.09375 12.171875 -19.765625 10.953125 -19.109375 C 9.742188 -18.453125 8.800781 -17.53125 8.125 -16.34375 C 7.445312 -15.15625 7.109375 -13.789062 7.109375 -12.25 C 7.109375 -10.726562 7.445312 -9.375 8.125 -8.1875 C 8.800781 -7 9.738281 -6.070312 10.9375 -5.40625 C 12.132812 -4.738281 13.503906 -4.40625 15.046875 -4.40625 C 16.679688 -4.40625 18.148438 -4.753906 19.453125 -5.453125 Z M 19.453125 -12.640625 "/></g></g></g><g fill="#332c54" fill-opacity="1"><g transform="translate(165.254572, 261.407371)"><g><path d="M 21.875 -4.546875 L 21.875 0 L 2.90625 0 L 2.90625 -24.5 L 21.421875 -24.5 L 21.421875 -19.953125 L 8.546875 -19.953125 L 8.546875 -14.625 L 19.921875 -14.625 L 19.921875 -10.21875 L 8.546875 -10.21875 L 8.546875 -4.546875 Z M 21.875 -4.546875 "/></g></g></g><g fill="#332c54" fill-opacity="1"><g transform="translate(192.479264, 261.407371)"><g><path d="M 13.515625 -24.5 C 15.679688 -24.5 17.5625 -24.132812 19.15625 -23.40625 C 20.757812 -22.6875 21.992188 -21.660156 22.859375 -20.328125 C 23.722656 -19.003906 24.15625 -17.429688 24.15625 -15.609375 C 24.15625 -13.816406 23.722656 -12.25 22.859375 -10.90625 C 21.992188 -9.5625 20.757812 -8.53125 19.15625 -7.8125 C 17.5625 -7.101562 15.679688 -6.75 13.515625 -6.75 L 8.578125 -6.75 L 8.578125 0 L 2.90625 0 L 2.90625 -24.5 Z M 13.1875 -11.375 C 14.894531 -11.375 16.191406 -11.738281 17.078125 -12.46875 C 17.960938 -13.207031 18.40625 -14.253906 18.40625 -15.609375 C 18.40625 -16.984375 17.960938 -18.035156 17.078125 -18.765625 C 16.191406 -19.503906 14.894531 -19.875 13.1875 -19.875 L 8.578125 -19.875 L 8.578125 -11.375 Z M 13.1875 -11.375 "/></g></g></g><g fill="#332c54" fill-opacity="1"><g transform="translate(221.838473, 261.407371)"><g><path d="M 2.90625 -24.5 L 8.578125 -24.5 L 8.578125 -4.625 L 20.859375 -4.625 L 20.859375 0 L 2.90625 0 Z M 2.90625 -24.5 "/></g></g></g><g fill="#332c54" fill-opacity="1"><g transform="translate(246.718694, 261.407371)"><g><path d="M 13.796875 0.421875 C 10.296875 0.421875 7.566406 -0.546875 5.609375 -2.484375 C 3.660156 -4.421875 2.6875 -7.1875 2.6875 -10.78125 L 2.6875 -24.5 L 8.359375 -24.5 L 8.359375 -10.984375 C 8.359375 -6.597656 10.179688 -4.40625 13.828125 -4.40625 C 15.597656 -4.40625 16.945312 -4.9375 17.875 -6 C 18.8125 -7.0625 19.28125 -8.722656 19.28125 -10.984375 L 19.28125 -24.5 L 24.890625 -24.5 L 24.890625 -10.78125 C 24.890625 -7.1875 23.914062 -4.421875 21.96875 -2.484375 C 20.019531 -0.546875 17.296875 0.421875 13.796875 0.421875 Z M 13.796875 0.421875 "/></g></g></g><g fill="#332c54" fill-opacity="1"><g transform="translate(278.037463, 261.407371)"><g><path d="M 10.953125 0.421875 C 9.015625 0.421875 7.140625 0.160156 5.328125 -0.359375 C 3.523438 -0.890625 2.078125 -1.578125 0.984375 -2.421875 L 2.90625 -6.6875 C 3.957031 -5.914062 5.203125 -5.296875 6.640625 -4.828125 C 8.085938 -4.359375 9.535156 -4.125 10.984375 -4.125 C 12.597656 -4.125 13.789062 -4.363281 14.5625 -4.84375 C 15.332031 -5.320312 15.71875 -5.957031 15.71875 -6.75 C 15.71875 -7.332031 15.488281 -7.816406 15.03125 -8.203125 C 14.570312 -8.585938 13.988281 -8.894531 13.28125 -9.125 C 12.570312 -9.363281 11.609375 -9.625 10.390625 -9.90625 C 8.523438 -10.34375 7 -10.785156 5.8125 -11.234375 C 4.625 -11.679688 3.601562 -12.394531 2.75 -13.375 C 1.894531 -14.351562 1.46875 -15.660156 1.46875 -17.296875 C 1.46875 -18.710938 1.851562 -20 2.625 -21.15625 C 3.394531 -22.3125 4.554688 -23.226562 6.109375 -23.90625 C 7.660156 -24.582031 9.554688 -24.921875 11.796875 -24.921875 C 13.359375 -24.921875 14.882812 -24.734375 16.375 -24.359375 C 17.875 -23.984375 19.179688 -23.445312 20.296875 -22.75 L 18.546875 -18.4375 C 16.285156 -19.726562 14.023438 -20.375 11.765625 -20.375 C 10.171875 -20.375 8.992188 -20.113281 8.234375 -19.59375 C 7.484375 -19.082031 7.109375 -18.40625 7.109375 -17.5625 C 7.109375 -16.726562 7.546875 -16.101562 8.421875 -15.6875 C 9.296875 -15.28125 10.628906 -14.878906 12.421875 -14.484375 C 14.285156 -14.046875 15.8125 -13.601562 17 -13.15625 C 18.195312 -12.71875 19.21875 -12.019531 20.0625 -11.0625 C 20.914062 -10.101562 21.34375 -8.804688 21.34375 -7.171875 C 21.34375 -5.773438 20.953125 -4.5 20.171875 -3.34375 C 19.390625 -2.1875 18.21875 -1.269531 16.65625 -0.59375 C 15.09375 0.0820312 13.191406 0.421875 10.953125 0.421875 Z M 10.953125 0.421875 "/></g></g></g></svg>